PathFileType	4	(X/Y/Z)	Walk8.trc
DataRate	CameraRate	NumFrames	NumMarkers	Units	OrigDataRate	OrigDataStartFrame	OrigNumFrames
200.000000	200.000000	4	59	mm	200.000000	448	526
Frame#	Times		LFHD		RFHD		RBHD		C7		T10		CLAV		STRN		RBack		LASI		RASI		RPSI		RACR1		RUA1		RElbow		RFA1		RWRR		RWRU		RCAR		LACR1		LUA1		LFA1		LWRR		LCAR		RTH1		RTH3		RTH2		RTH4		RLFC		LTH1		LTH3		LTH2		LTH4		LLFC		LTB1		LTB3		LTB2		LTB4		LMMAL		LMT1		LMT5		LToe		LLMAL		RTB1		LPSI		LElbow		RTB2		RTB4		LBHD		RMT1		RToe		RTB3		RElbowM		LCAL		LElbowM		LWRU		RLMAL		RCAL		RMT5		RMMAL
			X1	Y1	Z1	X2	Y2	Z2	X3	Y3	Z3	X4	Y4	Z4	X5	Y5	Z5	X6	Y6	Z6	X7	Y7	Z7	X8	Y8	Z8	X9	Y9	Z9	X10	Y10	Z10	X11	Y11	Z11	X12	Y12	Z12	X13	Y13	Z13	X14	Y14	Z14	X15	Y15	Z15	X16	Y16	Z16	X17	Y17	Z17	X18	Y18	Z18	X19	Y19	Z19	X20	Y20	Z20	X21	Y21	Z21	X22	Y22	Z22	X23	Y23	Z23	X24	Y24	Z24	X25	Y25	Z25	X26	Y26	Z26	X27	Y27	Z27	X28	Y28	Z28	X29	Y29	Z29	X30	Y30	Z30	X31	Y31	Z31	X32	Y32	Z32	X33	Y33	Z33	X34	Y34	Z34	X35	Y35	Z35	X36	Y36	Z36	X37	Y37	Z37	X38	Y38	Z38	X39	Y39	Z39	X40	Y40	Z40	X41	Y41	Z41	X42	Y42	Z42	X43	Y43	Z43	X44	Y44	Z44	X45	Y45	Z45	X46	Y46	Z46	X47	Y47	Z47	X48	Y48	Z48	X49	Y49	Z49	X50	Y50	Z50	X51	Y51	Z51	X52	Y52	Z52	X53	Y53	Z53	X54	Y54	Z54	X55	Y55	Z55	X56	Y56	Z56	X57	Y57	Z57	X58	Y58	Z58	X59	Y59	Z59

448	2.24	758.21	1579	-49.552	764.78	1581.6	23.304	597.39	1528.7	59.544	605.03	1404.8	-15.82	577.95	1120.3	-4.551	734.25	1332.1	-20.724	821.62	1110.2	-10.807	566.91	1300.7	86.229	775.02	929.06	-124.78	760.03	925.52	128.76	547.37	961.54	60.73	685.74	1344.2	152.89	687.45	1135.3	221.91	680.71	1028	250.87	780.57	908.22	241.2	830.84	820.88	193.48	789.35	795.51	249.08	847.03	775.74	240.54	669.51	1337	-189.9	618.94	1133.2	-229.31	597.52	891.29	-249.79	588	772.97	-213.44	572.25	731.13	-254.62	656.77	721.92	171.35	646.12	535.47	140.14	716.27	633.49	124.39	650.54	627.88	153.06	621.57	438.5	127.35	707.63	738.13	-175.57	768.08	565	-139.88	802.85	673.57	-124.75	737.73	647.46	-157.62	791.8	458.46	-128.09	830.86	363.55	-48.402	832.48	175.96	-49.088	810.25	270.05	-119.95	833.74	268.16	-52.581	815.83	73.729	-15.374	950.85	37.718	-54.103	910.75	21.104	-131.54	993.02	30.693	-78.395	801.17	60.337	-95.508	564.31	324.33	64.191	551.76	962.82	-55.253	576.92	1021.3	-237.9	483.11	288.43	137.44	487.41	272.29	68.087	591.34	1535.3	-67.644	360.32	47.219	55.331	385.22	26.74	84.747	411.66	219.51	71.336	659.48	1001.2	170.76	752.63	28.011	-42.403	557.6	1012.4	-168.6	535.96	784.26	-263.25	303.49	182.48	124.03	254.66	201.6	79.236	319.56	51.111	131.39	328.63	179.51	47.463
449	2.245	764.29	1579.8	-50.285	770.82	1582.5	22.571	603.46	1529.4	58.756	611.23	1405.6	-16.518	583.75	1121.2	-4.9501	740.4	1332.9	-21.282	827.52	1111	-11.344	573.03	1301.7	85.674	780.79	929.89	-125.2	766.35	926.29	127.54	553.01	962.09	60.513	691.9	1345.2	152.21	692.31	1136.2	221.21	684.73	1028.8	249.97	783.6	908.18	240.96	833.22	820.22	193.66	791.16	795.38	249.1	848.66	774.95	240.87	675.97	1337.8	-190.51	626.31	1133.7	-229.91	605.33	891.79	-250.12	595.41	773.53	-213.67	580.14	731.57	-254.9	664.35	722.13	170.47	656.17	535.49	139.62	725.13	634.39	123.9	659.3	627.94	152.32	632.83	438.77	127.07	712.26	738.68	-176.31	771.92	565.31	-140.45	807.39	673.73	-125.86	741.96	647.9	-158.28	795.08	458.59	-128.66	833.67	363.41	-48.997	833.5	175.79	-49.372	811.85	269.95	-120.33	835.62	267.99	-53.027	815.89	73.77	-15.427	950.73	37.791	-54.079	910.67	21.176	-131.63	993.15	30.652	-78.663	801.14	60.341	-95.558	574.97	325.31	64.132	557.31	963.74	-55.457	584.53	1021.7	-238.49	493.51	290.42	137.66	497.44	274.13	68.314	597.47	1535.9	-68.44	365.61	49.207	56.085	389.1	27.45	85.22	421.13	222.18	71.809	664.27	1002.4	169.54	752.59	27.988	-42.449	564.9	1012.9	-169.25	543.9	784.71	-263.91	312.57	186.54	124.85	264.09	206.95	80.141	325.13	54.438	131.48	337.66	183.17	48.247
450	2.25	770.38	1580.6	-50.989	776.86	1583.4	21.867	609.53	1530.2	58.013	617.38	1406.4	-17.176	589.51	1122.1	-5.3397	746.49	1333.6	-21.802	833.35	1111.7	-11.837	579.1	1302.7	85.137	786.44	930.74	-125.66	772.61	927.14	126.43	558.63	962.69	60.276	697.99	1346.2	151.57	697.12	1137.1	220.54	688.71	1029.7	249.09	786.57	908.16	240.73	835.51	819.57	193.83	792.9	795.28	249.14	850.22	774.17	241.2	682.36	1338.6	-191.07	633.67	1134.3	-230.49	613.21	892.32	-250.46	602.91	774.1	-213.88	588.17	732.02	-255.18	671.92	722.43	169.62	666.22	535.62	139.11	733.99	635.4	123.43	668.05	628.13	151.63	644.1	439.17	126.78	716.8	739.19	-177.04	775.61	565.55	-141	811.81	673.81	-126.97	746.06	648.28	-158.92	798.2	458.68	-129.23	836.36	363.26	-49.586	834.46	175.61	-49.664	813.37	269.85	-120.71	837.4	267.81	-53.472	815.93	73.817	-15.49	950.59	37.884	-54.083	910.58	21.239	-131.7	993.26	30.634	-78.966	801.09	60.339	-95.621	585.72	326.4	64.01	562.81	964.66	-55.666	592.15	1022.2	-239.07	504.05	292.4	137.79	507.62	276.01	68.443	603.59	1536.6	-69.188	371.65	51.326	56.87	393.84	28.367	85.795	430.8	224.83	72.163	668.99	1003.7	168.39	752.53	27.956	-42.491	572.23	1013.5	-169.88	551.98	785.16	-264.59	321.9	190.48	125.54	273.72	211.97	80.882	331.38	57.84	131.6	346.94	186.73	48.877
451	2.255	776.46	1581.4	-51.66	782.92	1584.2	21.195	615.6	1531	57.317	623.48	1407.3	-17.793	595.24	1123	-5.7239	752.54	1334.4	-22.284	839.09	1112.5	-12.289	585.11	1303.7	84.614	791.98	931.63	-126.17	778.8	928.08	125.45	564.23	963.33	60.018	704.02	1347.2	150.98	701.9	1137.9	219.91	692.67	1030.6	248.22	789.5	908.15	240.52	837.74	818.93	194.01	794.58	795.2	249.2	851.7	773.4	241.52	688.7	1339.5	-191.6	640.99	1134.9	-231.06	621.17	892.87	-250.79	610.5	774.68	-214.08	596.35	732.47	-255.46	679.47	722.84	168.8	676.23	535.89	138.62	742.82	636.51	122.99	676.79	628.46	150.99	655.38	439.71	126.48	721.25	739.66	-177.74	779.15	565.75	-141.54	816.13	673.82	-128.08	750.04	648.62	-159.55	801.17	458.73	-129.78	838.93	363.09	-50.164	835.35	175.44	-49.957	814.82	269.74	-121.09	839.1	267.62	-53.911	815.97	73.868	-15.558	950.45	37.987	-54.111	910.49	21.29	-131.78	993.35	30.625	-79.294	801.03	60.334	-95.695	596.56	327.59	63.83	568.29	965.59	-55.885	599.79	1022.7	-239.64	514.72	294.38	137.85	517.93	277.94	68.478	609.69	1537.3	-69.886	378.49	53.554	57.681	399.5	29.502	86.469	440.66	227.45	72.398	673.65	1004.9	167.31	752.48	27.919	-42.531	579.59	1014	-170.49	560.2	785.6	-265.27	331.46	194.28	126.08	283.51	216.63	81.445	338.35	61.272	131.75	356.45	190.16	49.352
